{"title":"Fruitvale.Station.2013.BDRiP.AC3-5.1.XviD-AXED","uid":9349382,"size":1492818249,"categoryP":"video","categoryS":"movies","magnet":"?xt=urn:btih:61f1ec909d9285bbf9f38ea13faec1420860498c&amp;dn=Fruitvale.Station.2013.BDRiP.AC3-5.1.XviD-AXED&amp;tr=udp%3A%2F%2Ftracker.openbittorrent.com%3A80&amp;tr=udp%3A%2F%2Fopen.demonii.com%3A1337&amp;tr=udp%3A%2F%2Ftracker.coppersurfer.tk%3A6969&amp;tr=udp%3A%2F%2Fexodus.desync.com%3A6969","seeders":0,"leechers":0,"uploader":"7","files":3,"time":1387094173,"description":"(  ___  )|     /|(  ____ (  __  \n| (   ) |(    / )| (    /| (    )\n| (___) |  (_) / | (__    | |   ) |\n|  ___  |  ) _ (  |  __)   | |   | |\n| (   ) | / ( )  | (      | |   ) |\n| )   ( |( /    )| (____/| (__/  )\n|/     ||/     |(_______/(______/\n  _    _    _    _    _    _    _    _\n /   /   /   /   /   /   /   / \n( p )( r )( e )( s )( e )( n )( t )( s )\n _/  _/  _/  _/  _/  _/  _/  _/\n\nFruitvale.Station.2013.BDRiP.AC3-5.1.XviD-AXED\n\nPOSTER: &lt;a href=&quot;\nhttp://lookpic.com/O/i2/351/OaA0oxqY.jpeg&quot; rel=&quot;nofollow&quot; target=&quot;_NEW&quot;&gt;\nhttp://lookpic.com/O/i2/351/OaA0oxqY.jpeg&lt;/a&gt;\n\nIMDB: &lt;a href=&quot;\nhttp://www.imdb.com/title/tt2334649&quot; rel=&quot;nofollow&quot; target=&quot;_NEW&quot;&gt;\nhttp://www.imdb.com/title/tt2334649&lt;/a&gt;\n\nPLOT INFO:\nThe purportedly true story of Oscar Grant III, a 22-year-old Bay Area resident, who crosses paths with &gt;&gt;\nfriends, enemies, family, and strangers on the last day of 2008.\n\nMedia Info:\nGeneral\nComplete name                            : Fruitvale.Station.2013.BDRiP.AC3-5.1.XviD-AXED.avi\nFormat                                   : AVI\nFormat/Info                              : Audio Video Interleave\nFile size                                : 1.37 GiB\nDuration                                 : 1h 25mn\nOverall bit rate                         : 2 304 Kbps\n\nVideo\nID                                       : 0\nFormat                                   : MPEG-4 Visual\nFormat profile                           : Advanced Simple@L5\nFormat settings, BVOP                    : 2\nFormat settings, QPel                    : No\nFormat settings, GMC                     : No warppoints\nFormat settings, Matrix                  : Default (H.263)\nMuxing mode                              : Packed bitstream\nCodec ID                                 : XVID\nCodec ID/Hint                            : XviD\nDuration                                 : 1h 25mn\nBit rate                                 : 1 849 Kbps\nWidth                                    : 720 pixels\nHeight                                   : 400 pixels\nDisplay aspect ratio                     : 16:9\nFrame rate                               : 23.976 fps\nColor space                              : YUV\nChroma subsampling                       : 4:2:0\nBit depth                                : 8 bits\nScan type                                : Progressive\nCompression mode                         : Lossy\nBits/(Pixel*Frame)                       : 0.268\nStream size                              : 1.10 GiB (80%)\nWriting library                          : XviD 64\n\nAudio\nID                                       : 1\nFormat                                   : AC-3\nFormat/Info                              : Audio Coding 3\nMode extension                           : CM (complete main)\nFormat settings, Endianness              : Big\nCodec ID                                 : 2000\nDuration                                 : 1h 25mn\nBit rate mode                            : Constant\nBit rate                                 : 448 Kbps\nChannel(s)                               : 6 channels\nChannel positions                        : Front: L C R, Side: L R, LFE\nSampling rate                            : 48.0 KHz\nBit depth                                : 16 bits\nCompression mode                         : Lossy\nStream size                              : 272 MiB (19%)\nAlignment                                : Aligned on interleaves\nInterleave, duration                     : 64 ms (1.53 video frames)\nInterleave, preload duration             : 192 ms\nTitle                                    : fruitvalestation\n\nSOURCE:\nRetail RA Blu-Ray DISC\n\nNOTES:\nEnjoy a nice xvid encode from the Retail RA Blu-Ray of this powerful movie based on the true story.\n\nAXED! Just because.\n\nSCREENS: &lt;a href=&quot;\nhttp://lookpic.com/O/i2/214/ZZCo8vyn.png&quot; rel=&quot;nofollow&quot; target=&quot;_NEW&quot;&gt;\nhttp://lookpic.com/O/i2/214/ZZCo8vyn.png&lt;/a&gt; &lt;a href=&quot;\nhttp://lookpic.com/O/i2/571/Cg00yaYh.png&quot; rel=&quot;nofollow&quot; target=&quot;_NEW&quot;&gt;\nhttp://lookpic.com/O/i2/571/Cg00yaYh.png&lt;/a&gt; &lt;a href=&quot;\nhttp://lookpic.com/O/i2/401/9d22zeoQ.png&quot; rel=&quot;nofollow&quot; target=&quot;_NEW&quot;&gt;\nhttp://lookpic.com/O/i2/401/9d22zeoQ.png&lt;/a&gt; &lt;a href=&quot;\nhttp://lookpic.com/O/i2/1047/d1dGOvaD.png&quot; rel=&quot;nofollow&quot; target=&quot;_NEW&quot;&gt;\nhttp://lookpic.com/O/i2/1047/d1dGOvaD.png&lt;/a&gt; &lt;a href=&quot;\nhttp://lookpic.com/O/i2/620/DYzfSfxF.png&quot; rel=&quot;nofollow&quot; target=&quot;_NEW&quot;&gt;\nhttp://lookpic.com/O/i2/620/DYzfSfxF.png&lt;/a&gt; &lt;a href=&quot;\nhttp://lookpic.com/O/i2/526/DYnG68ya.png&quot; rel=&quot;nofollow&quot; target=&quot;_NEW&quot;&gt;\nhttp://lookpic.com/O/i2/526/DYnG68ya.png&lt;/a&gt;\n\n","torrent":{"xt":"urn:btih:61f1ec909d9285bbf9f38ea13faec1420860498c","amp;dn":"Fruitvale.Station.2013.BDRiP.AC3-5.1.XviD-AXED","amp;tr":["udp%3A%2F%2Ftracker.openbittorrent.com%3A80","udp%3A%2F%2Fopen.demonii.com%3A1337","udp%3A%2F%2Ftracker.coppersurfer.tk%3A6969","udp%3A%2F%2Fexodus.desync.com%3A6969"],"infoHash":"61f1ec909d9285bbf9f38ea13faec1420860498c","infoHashBuffer":{"type":"Buffer","data":[97,241,236,144,157,146,133,187,249,243,142,161,63,174,193,66,8,96,73,140]},"announce":[],"urlList":[]}}